# xmcd
#
# Track frame offsets:
#	150
#	21877
#	40657
#	59547
#	84137
#	106690
#	128075
#	150097
#	168787
#	185320
#
# Disc length: 2744 seconds
#
# Revision: 11
# Processed by: cddbd v1.5.2PL0 Copyright (c) Steve Scherf et al.
# Submitted via: EasyCDDAExtractor 15.3.0.1
#
DISCID=620ab60a
DTITLE=Monica Naranjo - Palabra De Mujer
DYEAR=1997
DGENRE=Latin
TTITLE0=Desatame
TTITLE1=Empiezo A Recordarte
TTITLE2=Yo Vengo Y Tu Te Vas
TTITLE3=Entender El Amor
TTITLE4=Amame O Dejame
TTITLE5=Pantera En Libertad
TTITLE6=Rezando En Soledad
TTITLE7=Las Campanas Del Amor
TTITLE8=Miedo
TTITLE9=Tu Y Yo Volvemos Al Amor
EXTD=YEAR: 1997 ID3G: 8
EXTT0=
EXTT1=
EXTT2=
EXTT3=
EXTT4=
EXTT5=
EXTT6=
EXTT7=
EXTT8=
EXTT9=
PLAYORDER=
